<svg width="51" height="25" viewBox="0 0 51 25" fill="none" xmlns="http://www.w3.org/2000/svg">
<path d="M6.32263 8.54303V9.9407H0.679601L0.666504 0.796875H2.26013L2.24719 8.54303H6.32263Z" fill="white"/>
<path d="M7.26566 3.04354H8.84635V9.94064H7.26566V3.04354ZM8.03644 1.82878C7.77515 1.82878 7.5574 1.74169 7.38321 1.56752C7.20902 1.38464 7.12207 1.16693 7.12207 0.914381C7.12207 0.653136 7.20902 0.435424 7.38321 0.261246C7.5574 0.0870823 7.77515 0 8.03644 0C8.29758 0 8.51532 0.0914369 8.68951 0.27431C8.8637 0.448488 8.9508 0.661845 8.9508 0.914381C8.9508 1.16693 8.8637 1.38464 8.68951 1.56752C8.51532 1.74169 8.29758 1.82878 8.03644 1.82878Z" fill="white"/>
<path d="M13.2411 1.41051C12.9625 1.41051 12.7578 1.4671 12.6272 1.58032C12.4966 1.69353 12.4139 1.82851 12.379 1.98526C12.353 2.13331 12.3399 2.3336 12.3399 2.58615V3.04327H13.9073V4.28425H12.3399V9.94037H10.7592V4.28425H9.85791V3.04327H10.7592V2.28571C10.7592 0.953309 11.4473 0.287109 12.8232 0.287109C13.0234 0.287109 13.2325 0.300174 13.4502 0.326303C13.6766 0.352432 13.829 0.382901 13.9073 0.41774V1.46275C13.6984 1.42793 13.4762 1.41051 13.2411 1.41051Z" fill="white"/>
<path d="M17.233 10.0455C16.519 10.0455 15.9137 9.87573 15.4173 9.53602C14.9296 9.19646 14.5639 8.75657 14.3201 8.21663C14.0848 7.66801 13.9673 7.08452 13.9673 6.46631C13.9673 5.83928 14.0848 5.25579 14.3201 4.71585C14.5639 4.16723 14.9296 3.72307 15.4173 3.38351C15.9137 3.0438 16.5232 2.87402 17.2461 2.87402C18.204 2.87402 18.9617 3.18327 19.519 3.80148C20.0851 4.41984 20.368 5.31243 20.368 6.47941V6.91047H15.5087V7.01493C15.5087 7.31977 15.5784 7.6071 15.7177 7.87707C15.8658 8.14704 16.0661 8.36478 16.3186 8.53015C16.5799 8.68698 16.8759 8.76539 17.2069 8.76539C17.5814 8.76539 17.8993 8.6783 18.1604 8.5041C18.4217 8.32123 18.6177 8.0773 18.7483 7.77261H20.3027C20.1198 8.43437 19.7671 8.97872 19.2447 9.40538C18.7221 9.83218 18.0516 10.0455 17.233 10.0455ZM18.8397 5.86546C18.8223 5.23843 18.6655 4.78117 18.3695 4.49384C18.0822 4.19768 17.7033 4.04968 17.233 4.04968C16.7279 4.04968 16.323 4.21519 16.0182 4.54607C15.7222 4.86827 15.5653 5.30802 15.548 5.86546H18.8397Z" fill="white"/>
<path d="M23.4225 5.36887L20.4311 0.796875H22.1684L24.3629 4.25853H24.4413L26.6358 0.796875H28.3863L25.3819 5.36887L28.3863 9.9407H26.6358L24.4413 6.4792H24.3629L22.1684 9.9407H20.418L23.4225 5.36887Z" fill="white"/>
<path d="M0 14.8643H1.58054L4.0494 22.3491H4.12781L6.58358 14.8643H8.17721L5.12059 24.0212H3.04367L0 14.8643Z" fill="white"/>
<path d="M11.147 24.1123C10.4329 24.1123 9.82778 23.9425 9.33139 23.6029C8.84368 23.2632 8.47793 22.8235 8.23415 22.2835C7.9989 21.7349 7.88135 21.1514 7.88135 20.5332C7.88135 19.9062 7.9989 19.3227 8.23415 18.7827C8.47793 18.2341 8.84368 17.79 9.33139 17.4504C9.82778 17.1107 10.4373 16.9409 11.1601 16.9409C12.118 16.9409 12.8757 17.25 13.433 17.8684C13.9991 18.4866 14.2821 19.3793 14.2821 20.5462V20.9772H9.42275V21.0818C9.42275 21.3865 9.49249 21.674 9.63181 21.944C9.77982 22.2139 9.98005 22.4315 10.2327 22.597C10.4939 22.7539 10.79 22.8321 11.121 22.8321C11.4954 22.8321 11.8132 22.745 12.0745 22.5709C12.3358 22.388 12.5317 22.1442 12.6624 21.8394H14.2167C14.0339 22.5013 13.6812 23.0455 13.1588 23.4723C12.6362 23.8989 11.9656 24.1123 11.147 24.1123ZM12.7537 19.9322C12.7364 19.3053 12.5796 18.8481 12.2835 18.5607C11.9961 18.2646 11.6174 18.1166 11.147 18.1166C10.642 18.1166 10.2371 18.2819 9.93223 18.613C9.63608 18.9352 9.47939 19.3749 9.46203 19.9322H12.7537Z" fill="white"/>
<path d="M15.1587 17.1107H16.7523V18.2341H16.8438C17.0092 17.8771 17.2705 17.5722 17.6276 17.3198C17.9933 17.0671 18.4375 16.9409 18.9599 16.9409C19.8482 16.9409 20.4883 17.2282 20.8801 17.8031C21.2721 18.3779 21.468 19.044 21.468 19.8016V24.0078H19.8874V20.0498C19.8874 19.4838 19.748 19.0483 19.4694 18.7436C19.1994 18.4301 18.825 18.2733 18.346 18.2733C17.8322 18.2733 17.436 18.4388 17.1573 18.7696C16.8874 19.1005 16.7523 19.5273 16.7523 20.0498V24.0078H15.1587V17.1107Z" fill="white"/>
<path d="M24.7169 18.3519V21.7352C24.7169 22.0487 24.73 22.2795 24.7561 22.4275C24.791 22.5755 24.878 22.6931 25.0174 22.7802C25.1567 22.8673 25.3787 22.9108 25.6835 22.9108C25.8404 22.9108 26.0406 22.889 26.2844 22.8455V23.9558C26.2322 23.9732 26.0842 23.995 25.8404 24.0212C25.5964 24.0473 25.3569 24.0603 25.1218 24.0603C24.521 24.0603 24.0768 23.9732 23.7895 23.7991C23.5022 23.625 23.3191 23.4028 23.2409 23.1328C23.1711 22.8629 23.1363 22.5102 23.1363 22.0749V18.3519H21.9346V17.111H23.1363V14.8643H24.7169V17.111H26.2844V18.3519H24.7169Z" fill="white"/>
<path d="M33.4188 24.0079H31.8252V22.8454H31.7467C31.5814 23.2024 31.3201 23.5073 30.963 23.7597C30.6146 24.0124 30.188 24.1386 29.6829 24.1386C29.0821 24.1386 28.5986 23.9948 28.2329 23.7075C27.8671 23.4114 27.6103 23.0456 27.4622 22.6103C27.3142 22.1748 27.2402 21.7264 27.2402 21.2648V17.1108H28.8208V21.0166C28.8208 21.5739 28.9514 22.0094 29.2127 22.3228C29.4739 22.6363 29.8353 22.7931 30.2968 22.7931C30.7932 22.7931 31.1721 22.6276 31.4332 22.2968C31.6945 21.9571 31.8252 21.5304 31.8252 21.0166V17.1108H33.4188V24.0079Z" fill="white"/>
<path d="M34.499 17.1108H36.0666V18.2081H36.158C36.2713 17.9034 36.4759 17.6464 36.7719 17.4375C37.0768 17.2197 37.4643 17.1108 37.9346 17.1108C38.1 17.1108 38.2698 17.1326 38.444 17.1762L38.3786 18.6522C38.248 18.6087 38.1349 18.5827 38.0391 18.5738C37.9433 18.5565 37.8213 18.5478 37.6733 18.5478C37.1421 18.5478 36.7415 18.6914 36.4715 18.9789C36.2015 19.2662 36.0666 19.7452 36.0666 20.4157V24.0079H34.499V17.1108Z" fill="white"/>
<path d="M41.8419 24.1123C41.1279 24.1123 40.5226 23.9425 40.0262 23.6029C39.5385 23.2632 39.1728 22.8235 38.929 22.2835C38.6937 21.7349 38.5762 21.1514 38.5762 20.5332C38.5762 19.9062 38.6937 19.3227 38.929 18.7827C39.1728 18.2341 39.5385 17.79 40.0262 17.4504C40.5226 17.1107 41.1321 16.9409 41.8549 16.9409C42.8129 16.9409 43.5705 17.25 44.1278 17.8684C44.694 18.4866 44.9769 19.3793 44.9769 20.5462V20.9772H40.1176V21.0818C40.1176 21.3865 40.1873 21.674 40.3266 21.944C40.4746 22.2139 40.675 22.4315 40.9275 22.597C41.1888 22.7539 41.4849 22.8321 41.8158 22.8321C42.1902 22.8321 42.5082 22.745 42.7693 22.5709C43.0306 22.388 43.2266 22.1442 43.3572 21.8394H44.9116C44.7287 22.5013 44.376 23.0455 43.8536 23.4723C43.331 23.8989 42.6604 24.1123 41.8419 24.1123ZM43.4486 19.9322C43.4312 19.3053 43.2744 18.8481 42.9784 18.5607C42.691 18.2646 42.3122 18.1166 41.8419 18.1166C41.3368 18.1166 40.9319 18.2819 40.6271 18.613C40.331 18.9352 40.1742 19.3749 40.1569 19.9322H43.4486Z" fill="white"/>
<path d="M48.3484 24.1123C47.7736 24.1123 47.2772 24.0035 46.8592 23.7858C46.4412 23.568 46.1233 23.285 45.9056 22.9367C45.688 22.5797 45.5791 22.2051 45.5791 21.8133V21.7349H47.1336V21.8133C47.1336 22.0833 47.2423 22.3271 47.4601 22.5448C47.6778 22.7626 47.9869 22.8714 48.3875 22.8714C48.7184 22.8714 48.9884 22.793 49.1974 22.6362C49.4065 22.4795 49.511 22.2617 49.511 21.9831C49.511 21.7393 49.4194 21.5476 49.2366 21.4083C49.0625 21.269 48.8448 21.1819 48.5835 21.1471L47.7605 20.9903C47.2294 20.9032 46.759 20.7073 46.3497 20.4026C45.9491 20.089 45.7489 19.6231 45.7489 19.0048C45.7489 18.3604 45.984 17.8553 46.4543 17.4895C46.9245 17.1238 47.5298 16.9409 48.27 16.9409C48.8099 16.9409 49.2759 17.0411 49.6676 17.2413C50.0683 17.4416 50.3687 17.7029 50.5691 18.0251C50.778 18.3473 50.8826 18.6956 50.8826 19.0701V19.1223H49.3281V19.0832C49.3281 18.8481 49.2366 18.6261 49.0537 18.417C48.8796 18.2079 48.6008 18.1035 48.2177 18.1035C47.8955 18.1035 47.6387 18.1862 47.447 18.3517C47.2554 18.5084 47.1596 18.7174 47.1596 18.9787C47.1596 19.2051 47.2467 19.388 47.4209 19.5273C47.6038 19.6667 47.8302 19.7624 48.1002 19.8147L49.0015 19.9715C49.5676 20.0846 50.0422 20.298 50.4253 20.6115C50.8086 20.925 51.0001 21.3736 51.0001 21.9569C51.0001 22.3837 50.8826 22.7626 50.6473 23.0934C50.4209 23.4156 50.1031 23.6682 49.6938 23.8511C49.2932 24.0253 48.8448 24.1123 48.3484 24.1123Z" fill="white"/>
</svg>
